<svg id="Capa_1" enable-background="new 0 0 512 512" height="512" viewBox="0 0 512 512" width="512" xmlns="http://www.w3.org/2000/svg"><g><path d="m51.921 71.5c-12.44 0-22.561 10.094-22.561 22.5s10.121 22.5 22.561 22.5 22.56-10.094 22.56-22.5-10.12-22.5-22.56-22.5zm0 30c-4.169 0-7.561-3.364-7.561-7.5s3.392-7.5 7.561-7.5 7.561 3.364 7.561 7.5-3.392 7.5-7.561 7.5z"/><path d="m117.184 71.5c-12.44 0-22.561 10.094-22.561 22.5s10.121 22.5 22.561 22.5 22.561-10.094 22.561-22.5-10.121-22.5-22.561-22.5zm0 30c-4.169 0-7.561-3.364-7.561-7.5s3.392-7.5 7.561-7.5 7.561 3.364 7.561 7.5-3.392 7.5-7.561 7.5z"/><path d="m180.563 71.5c-12.44 0-22.561 10.094-22.561 22.5s10.121 22.5 22.561 22.5 22.561-10.094 22.561-22.5-10.12-22.5-22.561-22.5zm0 30c-4.169 0-7.561-3.364-7.561-7.5s3.392-7.5 7.561-7.5 7.561 3.364 7.561 7.5-3.392 7.5-7.561 7.5z"/><path d="m458.809 71.5h-111.469c-4.142 0-7.5 3.357-7.5 7.5s3.358 7.5 7.5 7.5h111.468c4.169 0 7.561 3.364 7.561 7.5s-3.392 7.5-7.561 7.5h-210.848c-4.169 0-7.561-3.364-7.561-7.5s3.392-7.5 7.561-7.5h64.529c4.142 0 7.5-3.357 7.5-7.5s-3.358-7.5-7.5-7.5h-64.529c-12.44 0-22.561 10.094-22.561 22.5s10.121 22.5 22.561 22.5h210.849c12.44 0 22.561-10.094 22.561-22.5s-10.121-22.5-22.561-22.5z"/><path d="m474.5 39h-437c-20.678 0-37.5 16.822-37.5 37.5v274.5c0 4.143 3.358 7.5 7.5 7.5s7.5-3.357 7.5-7.5v-205h482v289.5c0 12.406-10.093 22.5-22.5 22.5h-437c-12.407 0-22.5-10.094-22.5-22.5v-49.167c0-4.143-3.358-7.5-7.5-7.5s-7.5 3.357-7.5 7.5v49.167c0 20.678 16.822 37.5 37.5 37.5h437c20.678 0 37.5-16.822 37.5-37.5v-359c0-20.678-16.822-37.5-37.5-37.5zm-459.5 92v-54.5c0-12.406 10.093-22.5 22.5-22.5h437c12.407 0 22.5 10.094 22.5 22.5v54.5z"/><path d="m283.5 257h97.213c2.816 5.902 8.824 10 15.787 10h33c6.963 0 12.972-4.098 15.787-10h14.213c11.58 0 21-9.421 21-21s-9.42-21-21-21h-14.213c-2.816-5.902-8.824-10-15.787-10h-33c-6.963 0-12.972 4.098-15.787 10h-97.213c-11.58 0-21 9.421-21 21s9.42 21 21 21zm182-21c0 3.309-2.691 6-6 6h-12.5v-12h12.5c3.309 0 6 2.691 6 6zm-71.5-13.5c0-1.379 1.122-2.5 2.5-2.5h33c1.378 0 2.5 1.121 2.5 2.5v27c0 1.379-1.122 2.5-2.5 2.5h-33c-1.378 0-2.5-1.121-2.5-2.5zm-110.5 7.5h95.5v12h-95.5c-3.309 0-6-2.691-6-6s2.691-6 6-6z"/><path d="m283.5 328h23.213c2.816 5.902 8.824 10 15.787 10h33c6.963 0 12.972-4.098 15.787-10h88.213c11.58 0 21-9.421 21-21s-9.42-21-21-21h-28.5c-4.142 0-7.5 3.357-7.5 7.5s3.358 7.5 7.5 7.5h28.5c3.309 0 6 2.691 6 6s-2.691 6-6 6h-86.5v-12h23c4.142 0 7.5-3.357 7.5-7.5s-3.358-7.5-7.5-7.5h-24.713c-2.816-5.902-8.824-10-15.787-10h-33c-6.963 0-12.972 4.098-15.787 10h-23.213c-11.58 0-21 9.421-21 21s9.42 21 21 21zm36.5-34.5c0-1.379 1.122-2.5 2.5-2.5h33c1.378 0 2.5 1.121 2.5 2.5v27c0 1.379-1.122 2.5-2.5 2.5h-33c-1.378 0-2.5-1.121-2.5-2.5zm-36.5 7.5h21.5v12h-21.5c-3.309 0-6-2.691-6-6s2.691-6 6-6z"/><path d="m283.5 399h96.213c2.816 5.902 8.824 10 15.787 10h33c6.963 0 12.972-4.098 15.787-10h15.213c11.58 0 21-9.421 21-21s-9.42-21-21-21h-15.213c-2.816-5.902-8.824-10-15.787-10h-33c-6.963 0-12.972 4.098-15.787 10h-96.213c-11.58 0-21 9.421-21 21s9.42 21 21 21zm182-21c0 3.309-2.691 6-6 6h-13.5v-12h13.5c3.309 0 6 2.691 6 6zm-72.5-13.5c0-1.379 1.122-2.5 2.5-2.5h33c1.378 0 2.5 1.121 2.5 2.5v27c0 1.379-1.122 2.5-2.5 2.5h-33c-1.378 0-2.5-1.121-2.5-2.5zm-109.5 7.5h94.5v12h-94.5c-3.309 0-6-2.691-6-6s2.691-6 6-6z"/><path d="m234.3 386.333v-168.666c0-22.788-49.401-33.167-95.3-33.167s-95.3 10.379-95.3 33.167v168.666c0 22.788 49.401 33.167 95.3 33.167s95.3-10.379 95.3-33.167zm-175.6 0v-149.679c18.125 9.646 49.975 14.179 80.3 14.179 2.986 0 6.009-.043 8.986-.129 4.14-.119 7.4-3.572 7.281-7.713-.12-4.141-3.581-7.381-7.713-7.281-2.833.082-5.711.123-8.554.123-22.76 0-44.061-2.563-59.98-7.216-16.788-4.908-20.32-10.126-20.32-10.95s3.532-6.043 20.32-10.951c15.919-4.653 37.22-7.216 59.98-7.216s44.061 2.563 59.98 7.216c16.788 4.908 20.32 10.127 20.32 10.951 0 2.185-9.336 10.09-37.921 14.884-4.085.685-6.841 4.552-6.156 8.637.685 4.086 4.552 6.846 8.637 6.156 10.414-1.746 24.72-4.994 35.44-10.664v149.653c0 .824-3.532 6.043-20.32 10.951-15.919 4.653-37.22 7.216-59.98 7.216s-44.061-2.563-59.98-7.216c-16.788-4.908-20.32-10.127-20.32-10.951z"/></g></svg>