<svg height="512pt" viewBox="0 0 512 512" width="512pt" xmlns="http://www.w3.org/2000/svg"><path d="m245.394531 218.132812c4.183594 0 7.574219-3.394531 7.574219-7.574218v-40.394532c0-4.183593-3.390625-7.574218-7.574219-7.574218h-110.074219c-4.179687 0-7.574218 3.390625-7.574218 7.574218v40.394532c0 4.179687 3.394531 7.574218 7.574218 7.574218zm-102.5-40.398437h94.925781v25.25h-94.925781zm0 0"/><path d="m78.84375 252.726562c-2.046875-3.648437-6.664062-4.949218-10.3125-2.902343s-4.945312 6.660156-2.902344 10.3125c25.28125 45.101562 73.074219 73.117187 124.730469 73.117187 78.792969 0 142.894531-64.101562 142.894531-142.894531s-64.101562-142.894531-142.894531-142.894531-142.894531 64.101562-142.894531 142.894531c0 11.621094 1.398437 23.1875 4.164062 34.371094 1 4.0625 5.105469 6.542969 9.167969 5.539062 4.058594-1.003906 6.539063-5.109375 5.535156-9.171875-2.46875-9.996094-3.71875-20.339844-3.71875-30.738281 0-70.441406 57.304688-127.75 127.746094-127.75s127.75 57.308594 127.75 127.75c0 70.4375-57.308594 127.746094-127.75 127.746094-46.179687 0-88.910156-25.050781-111.515625-65.378907zm0 0"/><path d="m500.371094 444.214844-68.542969-68.539063c-2.957031-2.957031-7.753906-2.957031-10.710937 0-2.957032 2.957031-2.957032 7.75 0 10.710938l68.542968 68.539062c4.636719 4.640625 7.191406 10.808594 7.191406 17.367188 0 6.558593-2.554687 12.726562-7.191406 17.367187-9.574218 9.574219-25.15625 9.574219-34.734375 0l-148.515625-148.519531c13.011719-10.039063 24.695313-21.71875 34.730469-34.730469l54.921875 54.921875c1.476562 1.476563 3.417969 2.21875 5.355469 2.21875s3.878906-.742187 5.355469-2.21875c2.957031-2.960937 2.957031-7.753906 0-10.714843l-56.742188-56.738282c19.398438-29.816406 30.6875-65.375 30.6875-103.519531 0-104.964844-85.394531-190.359375-190.359375-190.359375-65.304687 0-125.308594 32.894531-160.515625 87.988281-2.253906 3.527344-1.222656 8.207031 2.300781 10.460938 3.527344 2.25 8.210938 1.222656 10.460938-2.304688 32.410156-50.71875 87.644531-80.996093 147.753906-80.996093 96.613281 0 175.210937 78.597656 175.210937 175.210937 0 96.609375-78.597656 175.210937-175.210937 175.210937s-175.210937-78.597656-175.210937-175.210937c0-22.132813 4.070312-43.699219 12.09375-64.105469 1.53125-3.894531-.382813-8.289062-4.273438-9.820312-3.894531-1.53125-8.289062.382812-9.820312 4.273437-8.726563 22.183594-13.148438 45.613281-13.148438 69.652344 0 104.964844 85.394531 190.359375 190.359375 190.359375 38.144531 0 73.703125-11.289062 103.519531-30.683594l150.335938 150.335938c7.742187 7.742187 17.910156 11.609375 28.078125 11.609375s20.335937-3.871094 28.078125-11.609375c7.5-7.5 11.628906-17.472656 11.628906-28.078125s-4.128906-20.578125-11.628906-28.078125zm0 0"/></svg>