<svg id="Capa_1" enable-background="new 0 0 512.392 512.392" height="512" viewBox="0 0 512.392 512.392" width="512" xmlns="http://www.w3.org/2000/svg"><path d="m444.807 452.495c-16.475 0-29.879 13.403-29.879 29.878s13.404 29.878 29.879 29.878 29.878-13.403 29.878-29.878c-.001-16.475-13.404-29.878-29.878-29.878zm0 44.767c-8.211 0-14.89-6.679-14.89-14.889s6.68-14.89 14.89-14.89 14.889 6.68 14.889 14.89-6.68 14.889-14.889 14.889z"/><path d="m444.805 312.597c-20.218 0-36.667 16.449-36.667 36.667s16.449 36.667 36.667 36.667 36.667-16.449 36.667-36.667-16.449-36.667-36.667-36.667zm0 58.345c-11.954 0-21.679-9.725-21.679-21.678s9.725-21.678 21.679-21.678c11.953 0 21.678 9.725 21.678 21.678s-9.725 21.678-21.678 21.678z"/><path d="m205.112 497.262h-87.703c-56.475 0-102.42-45.946-102.42-102.42v-14.478c0-56.475 45.946-102.42 102.42-102.42h247.444c35.886 0 65.081-29.196 65.081-65.082s-29.196-65.082-65.081-65.082h-15.725c-4.139 0-7.494 3.355-7.494 7.494s3.355 7.494 7.494 7.494h15.725c27.622 0 50.093 22.472 50.093 50.094s-22.471 50.094-50.093 50.094h-247.444c-64.74-.002-117.409 52.668-117.409 117.407v14.478c0 64.74 52.669 117.409 117.409 117.409h87.703c4.139 0 7.494-3.355 7.494-7.494s-3.356-7.494-7.494-7.494z"/><path d="m31.862 99.854v40.263c0 11.754 9.563 21.317 21.317 21.317s21.317-9.563 21.317-21.317v-40.263c18.151-8.167 30.827-26.409 30.827-47.569 0-28.752-23.392-52.144-52.144-52.144s-52.144 23.392-52.144 52.145c0 21.159 12.676 39.402 30.827 47.568zm27.646 40.263c0 3.49-2.839 6.329-6.329 6.329s-6.329-2.839-6.329-6.329v-36.086c2.076.253 4.185.398 6.329.398s4.252-.145 6.329-.398zm-6.329-124.987c20.487 0 37.155 16.668 37.155 37.155s-16.668 37.156-37.155 37.156-37.156-16.668-37.156-37.155 16.669-37.156 37.156-37.156z"/><path d="m492.964 301.844c-8.333-8.463-18.532-14.448-29.674-17.6 14.591-20.064 23.214-44.733 23.214-71.384 0-67.08-54.573-121.652-121.652-121.652h-230.515c-19.729 0-35.779 16.051-35.779 35.78s16.05 35.779 35.779 35.779h180.067c4.139 0 7.494-3.355 7.494-7.494s-3.355-7.494-7.494-7.494h-180.067c-11.464 0-20.79-9.327-20.79-20.791s9.326-20.791 20.79-20.791h230.516c58.815 0 106.663 47.849 106.663 106.664 0 26.217-9.515 50.247-25.264 68.838-.108-.002-.214-.011-.322-.013-18.115-.314-35.254 6.572-48.31 19.34-5.05 4.938-9.22 10.515-12.454 16.538-6.58 1.276-13.367 1.96-20.314 1.96h-240.204c-37.538 0-68.078 30.54-68.078 68.078s30.54 68.078 68.078 68.078h242.232c11.464 0 20.791 9.326 20.791 20.79s-9.327 20.791-20.791 20.791h-127.003c-4.139 0-7.494 3.355-7.494 7.494s3.355 7.494 7.494 7.494h127.003c19.729 0 35.78-16.051 35.78-35.78s-16.05-35.779-35.78-35.779h-242.232c-29.274 0-53.09-23.816-53.09-53.09s23.816-53.09 53.09-53.09h240.205c4.803 0 9.54-.288 14.2-.834-1.168 4.92-1.803 9.997-1.834 15.169-.149 24.75 13.223 47.578 34.899 59.575 2.559 1.416 4.825 3.587 6.556 6.278l13.506 21.009c2.773 4.316 7.493 6.893 12.623 6.893h.002c5.13 0 9.85-2.577 12.625-6.893l13.507-21.011c1.728-2.688 4.004-4.863 6.58-6.292 21.512-11.919 34.875-34.582 34.875-59.145 0-17.852-6.899-34.692-19.428-47.415zm-22.712 93.454c-4.737 2.625-8.859 6.531-11.923 11.296l-13.542 21.011-13.506-21.011c-3.068-4.77-7.184-8.672-11.904-11.285-16.875-9.34-27.286-27.108-27.17-46.371.085-14.047 5.729-27.257 15.893-37.196 9.963-9.743 22.971-15.077 36.714-15.077.29 0 .581.002.87.007 28.518.467 51.719 24.059 51.719 52.592 0 19.115-10.403 36.755-27.151 46.034z"/><path d="m395.089 212.729c0-19.835-16.137-35.973-35.973-35.973-19.835 0-35.973 16.137-35.973 35.973s16.137 35.973 35.973 35.973 35.973-16.137 35.973-35.973zm-56.956 0c0-11.571 9.414-20.984 20.984-20.984s20.984 9.413 20.984 20.984-9.414 20.984-20.984 20.984-20.984-9.413-20.984-20.984z"/><path d="m95.516 386.707c0 19.836 16.137 35.973 35.973 35.973s35.973-16.137 35.973-35.973-16.137-35.973-35.973-35.973c-19.835 0-35.973 16.138-35.973 35.973zm56.957 0c0 11.571-9.413 20.984-20.984 20.984s-20.984-9.413-20.984-20.984 9.413-20.984 20.984-20.984 20.984 9.413 20.984 20.984z"/></svg>